<?xml version="1.0" standalone="no"?><!DOCTYPE svg PUBLIC "-//W3C//DTD SVG 1.1//EN" "http://www.w3.org/Graphics/SVG/1.1/DTD/svg11.dtd"><svg class="icon" width="48px" height="48.00px" viewBox="0 0 1024 1024" version="1.1" xmlns="http://www.w3.org/2000/svg"><path d="M512 64C264.577 64 64 264.576 64 512s200.577 448 448 448 448-200.576 448-448S759.423 64 512 64z m301.115 499.41H563.41v249.705c0 32.447-26.307 58.754-58.754 58.754s-58.754-26.307-58.754-58.754V563.41H196.197c-32.447 0-58.754-26.307-58.754-58.754s26.307-58.754 58.754-58.754h249.705V196.197c0-32.447 26.307-58.754 58.754-58.754s58.754 26.307 58.754 58.754v249.705h249.705c32.447 0 58.754 26.307 58.754 58.754s-26.308 58.754-58.754 58.754z" /></svg>